<?xml version="1.0" encoding="UTF-8"?>
<svg width="68px" height="56px" viewBox="0 0 68 56" version="1.1" xmlns="http://www.w3.org/2000/svg" xmlns:xlink="http://www.w3.org/1999/xlink">
    <!-- Generator: Sketch 49.3 (51167) - http://www.bohemiancoding.com/sketch -->
    <title>Group 4</title>
    <desc>Created with Sketch.</desc>
    <defs></defs>
    <g id="Page-1" stroke="none" stroke-width="1" fill="none" fill-rule="evenodd">
        <g id="00_HOME" transform="translate(-648.000000, -127.000000)">
            <g id="Group-4" transform="translate(684.000000, 154.500000) scale(-1, 1) translate(-684.000000, -154.500000) translate(648.000000, 127.000000)">
                <path d="M47.5,0 L57.4579882,-1.77635684e-15 C65.4893195,-3.25168848e-15 72,6.51068047 72,14.5420118 L72,14.5420118 C72,22.5733432 65.4893195,29.0840237 57.4579882,29.0840237 L31.3082275,29.0840237 L23,36 L23,24.5 C23,10.9690236 33.9690236,2.48560004e-15 47.5,0 Z" id="Rectangle-2-Copy" fill="#F18800"></path>
                <g id="noun_1352171_cc-copy" transform="translate(0.000000, 14.000000)" stroke="#0069B4" stroke-width="2">
                    <g id="Group">
                        <path d="M36.7172792,15.8756208 L36.7172792,31.1750687 L5.20884907,31.1750687 L5.20884907,15.8756208 C5.20884907,7.16615028 12.3071826,0.0411552062 20.9528507,0.0411552062 C25.2731314,0.0411552062 29.2257287,1.82111788 32.0752755,4.69169351 C34.9248224,7.56226914 36.7172792,11.5183133 36.7172792,15.8756208 Z" id="Shape"></path>
                        <path d="M26.2280871,35.1053909 C26.2280871,38.0171217 23.884105,40.3835461 20.9885977,40.3835461 C18.0930905,40.3835461 15.7491084,38.0171217 15.7491084,35.1053909" id="Shape"></path>
                    </g>
                </g>
            </g>
        </g>
    </g>
</svg>