<?xml version="1.0" encoding="UTF-8"?>
<svg width="55px" height="58px" viewBox="0 0 55 58" version="1.1" xmlns="http://www.w3.org/2000/svg" xmlns:xlink="http://www.w3.org/1999/xlink">
    <!-- Generator: Sketch 49.3 (51167) - http://www.bohemiancoding.com/sketch -->
    <title>Group 9</title>
    <desc>Created with Sketch.</desc>
    <defs></defs>
    <g id="Page-1" stroke="none" stroke-width="1" fill="none" fill-rule="evenodd">
        <g id="00_HOME" transform="translate(-455.000000, -125.000000)">
            <g id="Group-9" transform="translate(455.000000, 125.000000)">
                <g id="Group-3" transform="translate(15.000000, 28.000000) scale(1, -1) rotate(-360.000000) translate(-15.000000, -28.000000) " fill="#F67F00">
                    <path d="M25.9253549,43.7112602 C28.3279094,41.0783992 29.658606,37.6511477 29.658606,34.0978155 L29.658606,29.0982639 L29.6552875,22.1934933 L29.6536283,18.9203404 L29.6519691,12.0163939 L29.6237623,11.4988863 C29.5192313,9.62003716 27.9753245,8.13920739 26.0813218,8.10047673 L25.8407345,8.09553239 C24.1458385,8.18041022 22.5264371,9.43956876 22.5264371,11.9504693 L22.5347333,25.8341755 C22.5347333,26.5931317 20.5154592,26.5931317 20.5154592,25.8341755 L20.5154592,15.059635 L20.5046743,3.61760863 C20.5046743,1.64481704 18.9143093,0.036258492 16.9290493,0 C14.81437,0 13.7300679,1.58383685 13.6670175,3.21546899 C13.6479364,3.36874353 13.633833,3.52531429 13.633833,3.69177373 L13.6130927,17.7196898 L11.7564225,17.7196898 L11.7564225,8.28671353 C9.81347273,9.37282017 6.99694218,11.7749453 6.99694218,16.5083266 L6.99611256,21.3587239 L5.44225049,21.3587239 L5.44225049,15.6826218 C3.58640989,16.6550087 0,19.0480691 0,24.1135453 L0,55.6 L20.6664485,55.6 L20.6664485,49.2909477 C20.6664485,49.2909477 24.4212695,45.3610216 24.4320544,45.3478367 L25.9253549,43.7112602 Z" id="Fill-1"></path>
                </g>
                <g id="Page-1" transform="translate(23.000000, 19.000000)" stroke="#0069B4" stroke-width="2">
                    <polygon id="Stroke-4" points="0 38 31 38 31 0 0 0"></polygon>
                    <path d="M11.4210526,9.70212766 L25.2894737,9.70212766" id="Stroke-6"></path>
                    <path d="M6.52631579,16.1702128 L25.2894737,16.1702128" id="Stroke-8"></path>
                    <path d="M6.52631579,23.4468085 L25.2894737,23.4468085" id="Stroke-9"></path>
                    <path d="M6.52631579,29.9148936 L25.2894737,29.9148936" id="Stroke-11"></path>
                </g>
            </g>
        </g>
    </g>
</svg>